<?xml version="1.0" ?><svg id="Layer_1" style="enable-background:new 0 0 512 512;" version="1.1" viewBox="0 0 512 512" xml:space="preserve" xmlns="http://www.w3.org/2000/svg" xmlns:xlink="http://www.w3.org/1999/xlink"><style type="text/css">
	.st0{fill:#010101;}
</style><path class="st0" d="M256,85.3c-94.3,0-170.7,76.4-170.7,170.6c0,94.3,76.4,170.7,170.7,170.7  c94.3,0,170.7-76.4,170.7-170.7C426.7,161.7,350.3,85.3,256,85.3z M260.5,165.8c8.7-0.2,17.2,0.9,25.5,3.4c6.8,2,13.3,4.8,19.3,8.5  c1.8,1.1,3.6,2.4,5.3,3.9c1.4,1.1,4.1,3.5,5.5,4.6c1.6,1.3,4.7,4,6.3,5.3c7.3,6.5,12.4,14.6,16.6,23.4c3.4,7,5.4,14.4,6.7,22  c0.3,1.5,0.9,3.2-0.6,4.6c-4.2,0.3-8.3,0.4-12.4,0.8c-1.6,0.2-2.1-0.2-2.3-1.8c-1.9-14.3-7.7-26.9-17.6-37.4  c-14.4-15.2-32.1-22.7-53.1-22.1c-0.5,0-1.1,0.1-2.7,0.1c-0.1-4.7-0.2-9.4-0.4-14.1C257.4,165.5,259.1,165.8,260.5,165.8z   M288.7,211.8c-8-5.6-17.1-8.3-26.9-8c-1.6,0.1-2.1-0.3-2.2-1.9c-0.2-3.8-0.5-7.6-1-11.3c-0.1-1.3,0.2-1.7,1.5-1.7  c15.7-0.5,29.6,4.4,41.8,14.6c11.5,9.9,18.5,22.4,20.9,37.6c0.3,1.8-0.1,2.4-2,2.5c-3.7,0.2-7.4,0.5-11,0.9  c-1.1,0.1-1.6-0.1-1.7-1.4C306.1,229.9,299.5,219.4,288.7,211.8z M300.4,243.9c0.1,1.1-0.3,1.2-1.2,1.3c-4.2,0.3-8.4,0.7-12.9,1.1  c-1.7-12.3-11.1-20.7-23.2-20.9c-1.1,0-1.6-0.1-1.7-1.4c-0.2-3.7-0.6-7.5-1-11.2c-0.1-1.1,0.1-1.5,1.3-1.6  C280,210,298.6,225.7,300.4,243.9z M351.4,310.4c-1.5,20-16.5,29.8-34.3,34.8c-3.9,1-8.1,1.2-12.2,1c-6.7,0.3-13.2-1.2-19.6-3.1  c-43.4-12.4-75.8-39.4-102-75.1c-9.9-13.5-19-27.4-22.1-44.2c-3.6-20,2.2-37.1,17.1-50.8c4.8-4.5,19.3-6.4,25.1-3.5  c2.1,1,3.5,3,4.4,5c5.5,12.9,10.9,25.9,16.2,38.9c1,2.4,0.6,4.9-0.6,7.4c-2.7,6-7.2,10.8-11.7,15.5c-3.4,3.5-3.5,6.7-1,10.9  c15.3,25.4,36.5,43.9,64.2,55c4.1,1.7,7.3,1.1,10-2.4c4.6-5.7,9.5-11.3,13.9-17.3c3-4.1,6.4-4.7,10.6-2.9  c9.2,4.2,18.3,8.6,27.5,12.9c2.1,1,4.1,2,6.1,3C352.3,300,352.2,300.2,351.4,310.4z" id="XMLID_1082_"/></svg>